<svg width="180" height="57" viewBox="0 0 180 57" fill="none" xmlns="http://www.w3.org/2000/svg">
<path d="M111.894 0.00161289C113.662 -0.0671301 113.837 2.08475 114.681 2.01951C117.504 1.80126 120.225 1.13762 123.099 1.46948C125.508 1.74756 128.42 2.65569 130.134 4.47365C131.222 5.69121 131.794 8.11114 131.575 9.71912C130.163 19.0646 121.441 25.0398 113.873 29.4134C110.514 31.3548 107.535 33.328 103.815 34.5342C102.576 35.0895 99.9988 35.656 99.0265 36.5217C97.8736 37.548 96.8473 40.9613 96.3086 42.4332C95.0213 45.9515 93.4579 49.298 92.6972 52.9531C92.6519 53.1696 93.107 53.4027 93.2669 53.5077C93.9615 54.8746 92.4363 56.5741 90.9476 55.8103C89.4144 55.0234 89.9499 53.2961 90.2037 51.965C90.5538 50.1262 91.2325 48.4467 91.9668 46.7599C94.8828 40.5396 97.1775 34.1634 99.7147 27.7864C100.216 26.5261 100.909 25.2562 101.452 23.9943C103.703 18.6548 106.003 13.3362 108.351 8.03842C107.764 8.29565 106.731 8.88999 106.122 9.22129C102.269 11.278 98.7075 13.8421 95.5353 16.8451C94.1978 18.1058 93.4229 18.8848 92.7084 20.6145C92.5023 21.1149 91.9477 22.9131 91.6366 23.1478C91.4775 23.1454 91.4163 23.1637 91.2738 23.0826C90.9723 22.9107 90.8537 22.6099 90.767 22.2901C90.5172 21.3632 90.3517 19.9573 90.7439 19.059C92.2724 15.5558 101.714 8.7747 105.03 6.79977C106.191 6.10749 108.769 5.06775 109.552 4.3648C110.898 3.15615 111.032 1.47195 111.894 0.00161289ZM113.604 27.4259C114.793 26.7552 116.306 25.7949 117.447 24.9793C117.474 24.9865 117.501 24.9945 117.528 25.0016C117.685 25.296 117.631 25.3183 117.869 25.4257C119.718 24.8457 122.676 22.3171 124.061 20.9391C122.136 22.0753 120.318 23.2488 118.407 24.3906L118.341 24.3667C118.672 24.0174 118.987 23.8519 119.336 23.5615C123.618 19.9995 128.351 16.159 129.34 10.3275C129.647 8.52431 130.185 7.47176 128.584 5.84429C127.179 4.46155 124.074 3.95171 122.19 3.98457C121.779 3.99396 121.369 4.01353 120.96 4.04313C119.583 4.14584 113.399 5.0738 112.643 5.99952C112.082 6.68639 110.541 10.4012 110.037 11.4804C106.783 18.4448 103.583 25.3382 100.657 32.452L100.687 32.5586C100.817 32.5689 103.24 32.3533 103.319 32.3183C106.385 30.9522 110.899 29.3004 113.604 27.4259ZM92.667 46.748L93.3178 46.9946C93.5422 46.7909 103.46 22.7627 103.453 22.5614C103.294 22.4962 103.192 22.4524 103.026 22.4063C99.6034 30.4573 95.9761 38.6738 92.667 46.748Z" fill="white"/>
<path d="M58.6225 7.37061C59.2582 7.47324 59.3775 7.57071 59.9334 7.88562C60.3628 8.64497 60.3216 8.99163 59.7978 9.70954C54.4383 17.0543 48.1165 24.0787 41.8485 30.591C38.2129 34.3639 34.5246 38.0859 30.7848 41.7554C29.3409 43.1836 21.4907 50.6793 20.8771 51.9212C20.8874 52.1345 20.9757 52.187 21.1212 52.3541C21.8379 52.5331 26.8463 49.6465 27.7737 49.1493C33.3969 46.133 39.0135 42.9584 44.7218 40.1156C46.8827 39.0399 49.054 37.9849 51.2352 36.9506C52.3319 36.4207 53.6107 35.9234 54.6112 35.2344C55.0075 34.9615 55.382 34.3058 55.6865 33.92C57.1994 32.0009 58.9114 29.4095 61.3267 28.6051C62.1299 28.3378 63.2838 28.1627 64.0558 28.5741C64.4494 28.7833 64.831 29.1923 64.9477 29.6299C65.3776 31.2434 62.7447 36.9315 61.888 38.5275C64.1337 37.8082 65.3632 37.1749 67.2786 35.8279C67.7474 35.4977 70.7166 33.1896 70.9352 33.1156L70.9771 33.2938L70.8296 34.2454C68.6592 36.0364 66.6827 37.9904 64.23 39.4544C61.7326 40.9446 60.5876 40.5794 59.6768 37.8417C57.3852 38.6556 54.6914 41.9623 52.4181 43.022C52.0975 43.1175 51.7003 43.0443 51.4369 42.8613C50.4676 42.1858 50.8483 40.6622 51.2622 39.7575C51.514 39.2078 52.0687 38.5036 52.4683 37.9642C49.3172 39.4823 45.7534 41.4578 42.6383 43.1199L30.4489 49.5343C28.5973 50.5074 19.2346 55.8103 17.6437 55.0242C17.4879 54.846 17.2874 54.5779 17.2908 54.3344C17.3191 52.3063 19.2767 50.392 20.4529 49.0212C22.8084 46.2762 25.3943 43.8909 28.0421 41.4881C31.3907 38.4949 34.7128 35.4723 38.0081 32.421C41.012 29.6378 43.8743 26.7059 46.584 23.6364C50.6681 18.9302 53.3755 13.5868 56.9841 8.53597C57.5167 7.79046 57.6888 7.52321 58.6225 7.37061ZM53.7158 40.1729C55.2384 38.8553 56.7694 37.5473 58.3088 36.2488C59.6146 35.1365 60.8351 34.3273 61.6201 32.7663L61.5836 32.6716L61.4109 32.6676C58.5182 33.5444 54.537 37.2776 53.5939 40.1633C53.7012 40.184 53.662 40.1952 53.7158 40.1729Z" fill="white"/>
<path d="M151.995 15.3391C152.251 15.3719 152.52 15.3994 152.676 15.6269C153.014 16.1208 152.707 17.274 152.469 17.7614C149.931 22.964 146.917 27.9614 145.011 33.4529C144.409 35.1826 143.627 36.9211 143.293 38.7439C143.163 39.456 142.695 41.7991 143.084 42.399C144.247 42.9003 148.179 38.2211 149.078 37.2306C149.242 37.05 149.62 36.1063 149.77 35.7992C151.171 32.9119 153.646 30.0611 156.621 28.7483C157.397 28.4054 158.728 28.5844 158.907 29.4962C159.376 31.8863 156.249 34.165 154.642 35.4229C153.571 36.3156 151.391 36.9935 150.844 38.3628C149.52 41.679 151.145 41.5652 153.495 40.4418C154.467 40.0058 155.783 39.0772 156.677 38.4646C158.605 37.1423 160.471 35.6934 162.399 34.3703L162.545 34.4267C162.688 34.6615 162.723 34.6702 162.705 34.9463C162.305 35.5287 158.561 37.5552 157.636 38.2219L157.655 38.3421L157.806 38.4423C158.099 38.3572 158.462 38.1806 158.749 38.0533C156.966 39.74 154.092 41.7649 151.725 42.3505C149.878 42.8072 149.109 41.2867 148.821 39.7599C147.665 41.0011 146.538 42.4014 145.211 43.47C144.325 44.1828 143.456 44.3229 142.43 43.8471C140.934 41.64 142.057 37.7199 142.769 35.3998C144.561 29.5638 146.988 24.1503 149.928 18.8068C150.306 18.1191 151.403 15.6381 151.995 15.3391ZM145.281 30.4565C147.2 27.5525 149.603 22.4834 150.857 19.1434L150.825 19.0041C150.702 18.9476 150.643 18.9087 150.512 18.8784C150.096 19.5921 145.108 30.4311 145.109 30.618C145.17 30.5623 145.223 30.517 145.281 30.4565ZM153.245 35.1563C154.061 34.4275 155.547 33.1792 155.954 32.1799L155.934 32.0335L155.737 31.9054C155.277 32.4146 153.246 34.5238 153.03 34.9558C153.143 35.0999 153.092 35.0593 153.245 35.1563Z" fill="white"/>
<path d="M138.203 23.1741C141.479 22.7842 137.992 28.4547 138.177 29.8725C138.207 30.1065 138.865 30.3881 139.054 30.4804C139.941 30.0587 140.712 28.8302 141.779 28.8963C142.135 28.9186 142.475 29.1382 142.7 29.4063C142.811 29.5392 142.84 29.6649 142.814 29.8391C142.786 30.0404 142.689 30.3985 142.562 30.556C142.405 30.7509 140.276 31.7391 139.706 32.1886C138.22 33.3606 131.83 42.7412 130.89 44.6634C130.582 45.2928 130.507 45.8728 130.417 46.5562C130.381 46.8299 130.275 46.9787 130.054 47.1466C129.285 47.3646 128.861 46.7949 128.617 46.156C128.768 45.315 128.856 45.0589 129.289 44.3245C131.151 41.2828 133.037 38.2562 134.946 35.2431C135.483 34.4077 137.069 32.3462 137.231 31.5712C137.134 31.3731 137.204 31.4447 137.001 31.3675C135.316 32.596 132.875 34.7036 131.229 36.065L131.299 35.8509C131.94 33.8396 134.771 32.4329 135.693 30.7939C135.982 30.2799 134.534 28.4428 135.163 26.5977C135.759 24.8449 136.604 24.0938 138.203 23.1741ZM136.656 29.1883L136.787 29.2599C136.922 29.0451 138.114 25.8975 138.115 25.4631C138.115 25.3621 138.018 25.3398 137.907 25.2714C136.534 26.3041 135.304 27.5214 136.656 29.1883Z" fill="white"/>
<path d="M124.204 30.2082C124.351 30.2011 124.498 30.1995 124.644 30.2043C125.008 30.2194 125.431 30.3634 125.669 30.6538C125.96 31.0071 125.994 31.6308 125.928 32.0621C125.627 34.0297 122.716 36.3506 121.155 37.3722C120.38 37.8798 119.504 38.276 118.774 38.8441C117.891 39.5307 117.476 40.4982 117.395 41.6145C117.372 41.9343 117.445 42.36 117.687 42.5939C119.447 44.2942 128.257 36.0864 129.613 36.0339L129.713 36.127C129.67 36.824 129.222 37.038 128.703 37.3682C128.043 37.6697 125.185 39.3843 124.735 39.8713L124.761 39.9723C125.088 40.0041 125.424 39.8251 125.74 39.6986C123.879 41.2644 117.243 46.7829 115.972 42.2327C114.789 37.9991 120.295 31.2012 124.204 30.2082ZM120.248 36.7508C120.891 36.1771 122.866 34.4776 122.931 33.6987C122.858 33.6152 122.835 33.5698 122.746 33.5141C122.318 33.9796 120.178 36.2137 120.068 36.6107C120.191 36.7412 120.125 36.7038 120.248 36.7508Z" fill="white"/>
</svg>
