<svg width="240" height="72" viewBox="0 0 240 72" fill="none" xmlns="http://www.w3.org/2000/svg">
<path d="M100.274 0C100.982 0.259834 102.311 1.13748 103.011 1.57027C106.179 1.78264 122.804 -1.30319 120.082 6.05259C117.463 13.1319 103.79 23.5258 97.1527 27.5126C103.396 27.0439 108.372 27.5255 110.169 34.0862C109.659 36.4622 108.626 37.4206 109.535 39.4411C109.169 40.648 107.598 41.3618 106.898 42.421C105.353 44.7595 103.734 47.2468 102.044 49.485C97.9221 54.9426 91.6078 60.1114 85.5096 63.3956C83.1242 64.6803 76.8764 67.8568 74.0639 67.0322C71.1447 66.1766 73.0019 63.1248 72.4611 62.0973C70.316 62.8733 69.5599 69.614 68.3191 71.3304C68.1167 71.6103 67.7696 71.5312 67.3208 71.5532L66.909 71.166C66.6526 69.8408 68.4596 66.2098 69.0894 64.8447C73.7914 56.4668 77.6817 47.1047 81.8915 38.4618C83.0814 36.019 83.7216 32.8895 84.9 30.3056L94.336 9.92865C94.7315 9.05449 95.2593 8.96386 95.2379 8.18194C91.872 8.8743 73.3312 19.0735 69.6967 21.759C69.3797 21.9931 66.6067 25.2618 66.0255 25.922C65.171 26.0879 65.4875 26.1448 64.8067 25.7772C63.6961 22.7999 70.618 18.7852 72.5976 17.4673C78.9837 13.2384 85.677 8.89709 92.8561 6.01344C97.3476 4.20963 97.2019 2.99251 100.274 0ZM107.896 33.1504C107.166 31.5659 106.845 30.6625 105.051 30.0179C102.735 29.1853 98.7541 29.5248 96.1677 29.5905C92.5975 30.5362 88.7481 30.5239 87.0946 34.187C85.3363 38.0824 73.8431 56.3346 73.8954 59.2018C74.9293 58.7036 79.1928 55.2663 80.7764 54.2916C87.1811 50.183 94.2927 47.0731 101.205 43.8604C105.271 41.9705 106.885 37.0967 107.896 33.1504ZM90.4035 28.5951C91.4952 27.866 93.2749 26.7446 94.2496 25.9769C98.4777 22.8823 117.948 9.40496 118.326 5.09585C118.388 4.38312 118.24 4.19541 117.806 3.6728C116.833 3.21614 114.96 2.80937 113.886 3.10272C111.399 3.33092 100.573 4.97814 99.7524 6.55189C96.9494 11.9263 92.2096 23.0273 90.4035 28.5951ZM75.1073 65.5392C83.2855 64.5069 94.8513 54.5594 99.5102 48.1245C100.107 47.3002 101.094 46.4118 100.978 45.4299L100.714 45.3215L100.505 45.4602C97.0056 47.7536 92.677 49.5424 89.0898 51.7367C86.5051 53.3176 73.1579 61.8334 74.7205 65.2746L75.1073 65.5392Z" fill="white"/>
<path d="M50.7354 8.573C51.9244 8.57541 52.6099 8.76928 53.2778 9.71449C53.4524 14.1252 25.1909 41.9475 20.1048 46.8533L10.0723 56.5741C8.14138 58.4527 5.48185 60.8762 3.85009 62.9361C10.3285 60.669 20.5915 54.4512 27.2523 51.2063C33.4562 47.7545 41.1392 45.0326 47.0241 41.2745C49.2065 39.8809 54.099 30.1869 59.274 32.7673C60.2206 34.1523 59.3666 35.2624 58.6628 36.5691C56.6773 40.2545 52.4491 41.7102 49.3235 44.2799C48.811 44.7011 48.9687 45.4093 48.9776 46.0032C52.7311 46.6017 57.5321 43.6377 61.5929 44.0208L61.656 44.3713C61.0531 45.1932 59.6041 46.0899 58.6336 46.4326C53.6671 48.186 48.7524 50.3526 46.2277 44.4689C41.8241 46.1572 37.1827 48.7172 32.9743 50.8637L15.6987 59.6444C12.9432 61.0647 2.60792 66.8918 0.224792 65.7654C0.00900388 65.3623 -0.0349322 65.1178 0.0237421 64.6625C0.774829 58.833 19.6986 44.1506 24.9309 39.2956C29.4065 35.1425 33.9567 30.7372 37.9026 26.117C41.6948 21.6765 46.743 11.6199 50.7354 8.573Z" fill="white"/>
<path d="M237.924 25.0256C238.769 24.9408 239.735 24.8878 240 25.8351C238.826 26.5355 236.872 26.9822 235.416 27.7204C222.68 34.1726 211.177 42.8696 198.496 49.2767C196.169 50.4523 195.458 47.5887 194.919 46.0102C196.368 40.5024 198.278 38.375 200.966 33.4068C196.682 36.824 193.365 41.3948 189.395 45.1017C188.399 46.0316 186.682 46.8114 185.72 45.4479C185.442 41.4326 192.88 34.5697 194.358 30.8631C194.635 30.1686 194.905 29.7474 195.297 29.1194C196.029 28.7874 196.689 29.0336 197.476 29.217C198.375 33.3239 191.114 37.7218 190.536 40.5429C193.039 39.7393 204.13 26.3974 207.558 26.1464C208.323 26.4639 208.379 26.5495 208.779 27.2592C208.811 27.861 208.898 28.2621 208.456 28.8099C204.258 34.0195 199.171 40.9811 196.979 47.1975C204.139 45.1483 221.01 33.5588 228.506 29.6482C231.385 28.146 234.522 25.6699 237.924 25.0256Z" fill="white"/>
<path d="M179.473 28.2487C186.082 28.2806 179.631 39.0018 178.157 41.3548C182.631 39.1464 186.012 36.2665 189.361 34.6198L189.605 35.0185C189.462 37.2198 181.195 42.2035 178.99 43.2294C178.855 43.1983 178.72 43.167 178.586 43.1356L178.393 43.0849C176.604 42.6414 176.11 41.3613 175.254 39.9221C173.446 41.4227 166.757 47.9464 164.854 45.2759C164.383 41.9104 169.073 37.2964 171.116 34.7828C173.351 32.033 175.767 28.9893 179.473 28.2487ZM169.581 41.9501C171.235 40.2308 177.435 35.5031 177.781 34.2562L177.371 33.7577C175.494 35.0601 168.921 39.5403 169.073 41.7032L169.581 41.9501Z" fill="white"/>
<path d="M144.748 18.8857C147.808 21.0449 142.147 27.8847 144.609 29.0547C146.454 28.5784 148.471 26.7556 150.171 27.3576C151.22 30.1519 146.461 31.0043 145.134 32.6041C140.091 38.6873 135.214 45.2665 131.79 52.3423C131.605 52.7247 131.149 52.6923 130.813 52.7067C129.012 51.4438 130.025 50.032 130.888 48.6516C133.75 43.7037 137.099 39.1131 139.954 34.1811C140.548 33.1554 141.712 32.2169 142.043 31.0893C140.418 31.4044 135.516 36.3876 132.883 37.7522L132.764 37.8126C134.415 34.7021 137.11 32.9846 139.312 30.3133C139.738 29.7875 139.875 29.2346 139.61 28.5924C138.02 24.7402 139.84 19.4502 144.748 18.8857ZM141.433 27.5603C142.005 26.6888 143.258 23.6697 143.059 22.6733L142.806 22.4553C141.355 23.8741 139.803 25.5843 141.433 27.5603Z" fill="white"/>
<path d="M117.927 40.1659C121.781 36.9442 124.732 34.562 127.615 30.4073C128.223 29.5305 128.813 29.1457 129.872 29.0443C130.7 29.3385 130.812 29.3771 131.287 30.085C131.324 30.584 131.347 31.2117 130.961 31.6022C128.049 34.5531 126.193 37.9422 123.966 41.4072C125.843 40.7695 130.718 37.3762 132.506 37.4048C132.262 39.1172 126.088 43.1778 124.331 44.0768C123.217 44.6472 122.422 44.6941 121.561 43.7626C120.96 41.9427 121.824 40.5668 122.574 38.8014C119.653 40.5859 113.584 47.1734 110.693 46.7425C108.405 43.502 115.571 34.3584 117.484 31.4571C117.833 30.928 118.483 30.5419 119.154 30.4888C122.112 32.5214 117.448 38.0009 116.002 39.9487C115.188 40.8385 114.28 42.5382 113.648 43.6207C115.135 42.4723 116.486 41.2932 117.927 40.1659Z" fill="white"/>
<path d="M160.339 27.1151C160.981 26.9936 161.403 27.1148 162.046 27.2221C162.536 27.5173 162.989 27.8833 163.166 28.4365C165.175 34.7288 148.379 38.9073 151.08 44.4912C154.262 46.8812 165.759 35.529 168.447 35.5732L168.864 36.0478C167.213 37.7937 165.646 38.2289 163.78 39.7421C160.303 42.5624 155.213 47.8015 150.122 46.6216C147.187 45.9411 148.271 40.3143 149.192 38.318C151.394 33.5447 155.212 29.157 160.339 27.1151ZM156.462 35.0417C157.115 34.4599 158.159 33.6946 158.298 32.895L157.823 32.6491C157.212 33.2688 156.345 34.0257 156.091 34.8039L156.314 35.0417H156.462Z" fill="white"/>
<path d="M157.823 32.6493L158.299 32.8952C158.16 33.6948 157.115 34.4601 156.462 35.042H156.315L156.091 34.8041C156.345 34.026 157.212 33.269 157.823 32.6493Z" fill="#FEFDFE" fill-opacity="0.278431"/>
<path d="M116.002 39.9486L116.477 40.4825C116.958 40.3632 117.441 40.2575 117.928 40.1658C116.486 41.2931 115.136 42.4721 113.649 43.6206C114.28 42.5381 115.189 40.8383 116.002 39.9486Z" fill="#FEFDFE" fill-opacity="0.0117647"/>
</svg>
