<svg width="220" height="80" viewBox="0 0 220 80" fill="none" xmlns="http://www.w3.org/2000/svg">
<path d="M70.8501 0C71.5324 0.077539 71.9138 0.188589 72.5313 0.481378C74.5088 1.41918 73.8117 3.10339 72.7273 4.46167C71.3808 6.14808 70.0546 7.85626 68.7163 9.54866C60.0763 20.2678 50.8235 30.4965 41.0024 40.1856C35.4739 45.7236 29.5041 51.62 23.8578 57.0266L15.1061 65.3767C13.5239 66.8753 5.88871 73.5107 6.37163 75.0707C7.57314 75.6606 14.5601 71.6307 16.0831 70.8399C26.2773 65.5471 36.4758 59.9102 46.7897 54.8641C50.849 52.9186 54.9208 50.9982 59.0046 49.1032C60.7332 48.2854 62.8377 47.3155 64.5 46.3995C65.7143 45.7304 67.0211 43.4765 67.8296 42.2252C70.4805 38.1229 74.4616 34.9176 79.1493 33.3124C79.653 33.1352 80.2771 33.0683 80.7567 33.3694C83.2746 34.9504 82.5335 36.9765 81.1957 38.9814C79.2055 41.964 76.8548 43.746 74.0351 45.8555C72.1305 47.2803 69.3747 48.1232 68.0074 50.0115C66.4622 52.6038 69.9612 52.368 71.5749 52.0602C74.3498 51.5309 76.6077 50.4951 79.2265 49.4681C81.0831 48.7376 82.946 48.0227 84.815 47.3235C85.2899 47.2322 85.2716 47.1642 85.6761 47.293C85.0248 48.3775 74.7945 51.946 74.6727 52.9135C75.2829 53.0436 86.5034 48.7392 87.9434 48.2521C88.2464 48.1497 88.8218 47.8384 89.118 48.0527C88.9462 48.4305 88.3435 48.7428 87.9802 48.9437C83.1395 51.6222 78.2419 54.2734 72.6558 55.0487C70.4622 55.3532 68.3134 55.3265 66.4601 53.9522C65.1554 52.9805 64.244 51.1738 64.0334 49.6079C62.7489 50.2915 60.7613 51.0338 59.2682 51.7817L43.5433 59.8181L20.1165 71.8042C15.2441 74.2772 10.3792 77.0281 5.24237 78.9206C4.34528 79.251 1.32631 80.5289 0.538342 79.7552C-0.999356 78.2454 1.15031 74.8654 2.0946 73.4761C7.28042 66.9816 13.4702 61.4233 19.7012 55.9238C25.1755 51.1679 30.6036 46.3607 35.9845 41.5032C41.2687 36.6466 46.3687 31.7227 51.0866 26.3213C57.9041 18.5157 62.5565 9.10386 69.0002 1.02794C69.4755 0.43209 70.1 0.100287 70.8501 0ZM72.5575 42.9238C74.3192 42.0006 76.9287 40.4781 77.5662 38.4493L77.519 38.2157C76.5998 39.0432 73.0583 41.9553 72.5194 42.6913L72.5575 42.9238Z" fill="white"/>
<path d="M145.022 8C145.324 8.01468 145.682 8.03314 145.978 8.08537C149.714 8.74212 151.138 13.2877 150.447 16.5337C149.517 20.8597 147.417 24.6155 145.451 28.5793C144.4 30.7022 143.842 35.1734 140.471 34.678C139.155 34.4844 139.139 32.7665 139.578 31.8123C140.235 30.3896 141.328 29.0664 142.053 27.6628C144.036 23.912 145.581 19.9668 146.804 15.9181C147.113 14.8977 147.784 12.0088 146.237 11.7605C143.102 11.2571 139.521 13.3031 136.981 14.9214C133.647 17.1053 130.796 19.7964 127.949 22.5597C118.585 31.654 110.858 43.3203 107.863 56.0247C107.224 59.4747 106.564 63.741 108.624 66.8538C110.356 69.4724 113.078 69.2128 115.736 68.5936C121.156 67.3314 125.667 64.2944 130.215 61.2919C134.663 58.3624 138.679 54.8669 142.697 51.406C144.329 50.0003 145.819 48.7215 147.621 47.5195L147.864 47.5866L147.959 47.8521C147.717 49.9411 144.252 52.2987 142.841 53.6888C140.973 55.5215 139.319 57.5973 137.323 59.305C131.454 64.3228 124.901 69.2198 117.215 71.0911C114.802 71.6787 109.764 71.8331 107.632 70.4118C103.953 67.9582 104.557 62.9743 104.73 59.1921C105.106 49.4027 109.371 40.1099 115.187 32.2906C116.305 30.7873 117.465 28.9014 118.673 27.5008C125.005 20.1589 135.136 9.8092 145.022 8ZM142.756 29.3427C142.286 30.158 141.961 30.952 141.692 31.8525C142.255 30.9853 142.766 30.2033 143.264 29.2935C143.686 28.1651 144.688 26.4334 145.216 25.2304C146.1 23.2167 147.059 21.3549 147.767 19.2495C148.025 18.483 148.73 17.4154 148.861 16.5789L148.726 16.4936C148.052 16.7784 146.498 20.851 146.134 21.6969L142.756 29.3427Z" fill="white"/>
<path d="M141.691 41.559C141.96 40.6585 142.286 39.8645 142.755 39.0492L143.263 39C142.765 39.9098 142.254 40.6918 141.691 41.559Z" fill="#FEFEFE" fill-opacity="0.101961"/>
<path d="M202.653 18C203.088 18.0317 203.522 18.038 203.86 18.3416C204.347 18.7769 204.296 19.594 204.199 20.1671C203.753 22.7739 201.61 25.6924 200.365 28.0719C198.337 31.9464 196.186 35.822 194.351 39.7847C192.402 43.994 188.208 54.7906 188.533 59.1784C188.564 59.6006 188.615 59.8734 188.946 60.1482C190.682 59.903 196.769 53.6316 197.957 52.1259C198.24 51.7683 199.509 49.2358 199.883 48.5841C202.119 44.693 205.391 40.9781 209.573 39.0566C210.511 38.6257 211.574 38.2556 212.611 38.5996C213.126 38.7704 213.774 39.448 213.901 39.8783C214.919 43.3115 209.456 47.4199 207.069 49.1183C205.564 50.1885 203.697 50.9784 202.438 52.0362C201.743 52.6103 201.202 53.3443 200.866 54.1731C200.556 54.9474 200.129 56.5145 200.525 57.2638C201.313 58.7531 203.508 57.5465 204.557 57.07C208.021 55.9405 216.039 49.3803 219.57 47.3945C219.687 47.3284 219.844 47.4794 219.985 47.5722C220.386 49.352 212.742 52.0786 211.999 53.6491C212.25 53.9098 212.44 53.4404 212.963 53.6041C212.175 55.1331 205.052 59.1475 203.216 59.6066C200.535 60.2771 198.772 59.5301 197.96 56.8618C197.874 56.578 198.023 56.3346 197.928 55.9713C197.543 56.0832 197.463 56.26 197.105 56.6023C195.16 58.4681 191.276 63.8819 188.089 62.3553C186.843 61.7584 186.397 58.5233 186.487 57.0679C186.665 52.8253 188.346 48.9221 189.632 44.9697C191.906 37.9704 195.186 31.5145 198.692 25.0447C199.938 22.7465 201.165 20.1668 202.653 18ZM200.574 23.6167C199.703 25.0729 198.4 27.9701 197.659 29.5727C196.374 32.3508 195.066 35.1184 193.735 37.8752C193.477 38.4064 191.853 41.408 191.934 41.7278L192.023 41.7087C194.678 38.0234 197.15 32.5289 199.062 28.4273C199.497 27.4967 200.655 24.9038 200.922 23.9858L200.857 23.7422L200.574 23.6167ZM204.868 48.5426C206.063 47.7288 208.551 45.247 209.16 43.9917C209.088 43.8246 209.101 43.8058 208.957 43.6983C208.32 44.3295 204.893 47.8098 204.696 48.4249L204.868 48.5426Z" fill="white"/>
<path d="M208.957 38C209.1 38.1075 209.087 38.1263 209.16 38.2934C208.55 39.5487 206.062 42.0306 204.867 42.8443L204.695 42.7266C204.892 42.1115 208.319 38.6312 208.957 38Z" fill="#1B151B" fill-opacity="0.01"/>
<path d="M171.472 21C175.078 21.0603 171.351 29.6698 170.625 31.4976C171.04 31.7802 171.558 32.2099 172.065 32.285C173.376 32.4793 174.79 29.7147 176.548 29.8813C177.113 29.935 177.615 30.3432 177.958 30.7631C178.178 31.0332 178.315 31.3431 178.255 31.696C178.067 32.8232 175.64 33.6963 174.722 34.2181C174.156 34.5396 173.619 34.9203 173.111 35.3224C170.778 37.1671 160.615 51.5604 159.301 54.3684C158.784 55.4722 158.68 56.6905 158.546 57.8829C158.351 57.9608 158.154 58.0344 157.955 58.1039C157.063 58.4117 156.043 58.1513 155.793 57.162C155.436 55.7427 156.222 54.5908 156.902 53.4224C160.553 47.1523 165.18 40.8253 169.049 34.657C169.211 34.3998 169.25 34.2013 169.18 33.9179C168.522 33.9324 160.605 40.4367 159.524 41.3647C161.036 37.1704 165.585 35.4918 167.025 32.6042C166.782 32.0228 166.559 31.4366 166.321 30.8559C164.582 26.6027 167.236 22.4757 171.472 21ZM168.357 30.4383L168.557 30.4304C169.011 29.8831 170.384 25.6932 170.701 24.7888L170.657 24.5718L170.511 24.5313C167.984 25.7728 166.656 27.8665 168.357 30.4383Z" fill="white"/>
<path d="M154.728 28.009C155.363 27.9657 157.072 28.0386 156.691 29.1313C154.629 35.0382 150.886 41.3593 149.201 47.334C151.885 44.8692 153.888 41.9488 156.105 39.0982C156.703 38.3279 157.269 37.5085 157.967 36.8239L158.182 36.8574C159.02 38.2092 157.062 40.5966 156.235 41.6278C154.089 44.0323 150.057 50.038 147.134 51.0163C146.602 51.1943 146.044 51.2014 145.535 50.9504C145.026 50.6989 144.676 50.2332 144.517 49.701C143.653 46.7913 150.232 33.6191 152.003 30.4215C152.743 29.0864 153.208 28.4505 154.728 28.009Z" fill="white"/>
<path d="M183.322 30.0256C185.75 29.7692 186.841 31.4715 186.237 33.7131C185.908 34.9224 184.552 38.6452 183.3 39.1278C180.472 40.2173 181.608 36.413 182.453 35.3394C182.759 34.9503 183.49 33.0139 183.589 32.7448C179.405 34.6472 175.004 40.5855 174.202 44.9687C173.244 50.199 180.486 44.2663 181.688 43.1551C182.631 42.4146 184.839 39.8828 185.942 41.3658C186.327 43.4451 176.961 51.493 173.134 49.3296C172.377 48.9025 171.829 48.1933 171.614 47.3632C171.332 46.2965 171.597 44.5406 171.798 43.4698C172.705 38.6172 178.359 31.2837 183.322 30.0256Z" fill="white"/>
<path d="M158.372 37.019C162.305 36.653 160.964 41.6814 157.725 42.9151C154.753 43.6107 154.682 38.7017 158.372 37.019Z" fill="white"/>
</svg>
