<svg width="180" height="57" viewBox="0 0 180 57" fill="none" xmlns="http://www.w3.org/2000/svg">
<path d="M24.1213 0C24.8342 0.0585439 27.3241 1.46459 27.6912 1.94634C29.7289 4.6207 29.8568 7.45979 30.2738 10.5872C31.2672 18.0368 30.8399 25.7364 29.9689 33.1814L41.3828 14.3146C43.335 11.101 45.2397 7.84241 47.254 4.66923C47.678 4.00133 48.7939 2.86975 49.6905 3.12793C52.8194 4.07277 50.0358 7.2145 49.0748 8.82446C41.7831 21.0396 38.7162 35.7722 36.7009 49.7087C36.5485 50.7625 36.4788 52.4324 36.8847 53.387C37.0565 53.7899 38.0065 54.1034 38.3836 54.6244C38.5249 55.187 38.2063 55.6801 37.6985 55.9054C36.5282 56.4244 35.2912 54.6829 35.0215 53.7293C34.4982 51.8797 34.5796 49.7037 34.692 47.8005C35.1097 44.0755 36.1005 40.4567 36.8853 36.8032C37.8526 32.4124 38.8271 27.8956 40.1815 23.6138C41.0579 20.8 42.1367 18.0533 43.4093 15.395C42.3078 16.7343 41.0948 18.6072 40.085 20.0596C36.7408 24.8692 33.821 29.6489 31.3209 34.9506C30.9439 35.6353 30.9606 36.2604 30.2947 36.6345C30.045 36.6454 30.0332 36.6911 29.8342 36.5789C28.8616 36.0302 28.1636 33.6091 28.0934 32.591C27.9386 30.3465 28.3698 28.0583 28.5705 25.8217C28.7155 24.2677 28.6389 22.87 28.7243 21.29C28.9956 16.2697 29.4338 10.8777 27.9595 5.99658C27.7584 5.33037 27.4166 4.68431 26.7813 4.3901C24.3977 4.30536 24.5235 6.81273 23.673 8.45831C23.4206 8.9469 23.1979 9.64149 22.9808 10.1654C18.7005 20.2223 14.6733 30.3852 10.9032 40.6443C10.1465 42.7399 8.03794 48.4465 7.96967 50.3675C8.0691 50.6831 8.29504 50.7714 8.5823 50.9609C8.58567 51.8133 8.63469 52.5148 7.82331 53.0387C7.48306 53.254 7.07196 53.3285 6.67774 53.2461C2.98272 52.4384 8.23967 41.706 9.04609 39.5111C10.6806 35.0637 12.0411 30.3763 13.7858 25.9904L18.3606 14.3124C18.9445 12.826 20.4742 9.16342 20.7808 7.87198C16.4998 9.859 10.2562 14.8017 7.38235 18.7102C6.86914 19.4082 6.36338 21.531 5.88789 22.4634L5.65401 22.5033C4.4879 21.9959 4.50625 19.0762 5.13039 18.1602C8.49855 13.2168 13.826 9.37209 18.7338 6.04769C19.7661 5.34843 20.8787 5.07467 21.9007 4.24612C23.2912 3.119 23.1149 1.03444 24.1213 0ZM13.7266 29.4128C13.9922 29.1329 20.8209 12.5509 21.3164 11.2576C21.2417 11.0021 21.3082 11.1105 21.0742 10.9539C19.3303 15.2054 17.4159 19.4381 15.6557 23.6856C14.9819 25.3114 13.9448 27.4818 13.3606 29.0913C13.5355 29.3354 13.4573 29.251 13.7266 29.4128ZM44.8592 12.3434C45.8164 12.1334 48.321 7.20308 48.2794 6.43229C47.8094 7.16617 44.746 11.7024 44.7063 12.121L44.8592 12.3434Z" fill="white"/>
<path d="M83.4771 32.7847C84.1512 32.8343 84.3307 32.9226 84.9294 33.25C86.1939 36.2814 84.3626 39.7315 82.8168 42.3333C84.3928 41.4601 86.1506 39.3178 86.7888 37.6488C87.4092 36.0274 87.8993 34.5311 89.0255 33.1359C89.4462 32.9841 89.7885 33.0079 90.1864 33.1816C90.3323 33.3235 90.4038 33.4088 90.4663 33.6082C90.7461 34.4983 88.2456 40.0471 87.645 41.2577C88.3448 40.5631 89.083 39.1431 89.9146 38.2302C91.1837 36.8361 93.6187 33.8394 95.3691 33.1101C95.7183 32.9643 96.4715 33.5547 96.6322 33.7472C97.6563 34.9776 94.9037 38.9933 94.3927 40.4251C93.704 42.3541 92.9837 43.2353 92.8418 45.3577C95.0922 44.1938 102.334 36.4233 103.897 36.3737C104.186 36.3648 104.284 36.467 104.492 36.6367C105.043 37.7867 104.128 38.4317 103.132 37.9593C103.132 37.9593 102.76 38.1062 102.716 38.1241C100.75 39.7365 98.9313 41.598 97.0569 43.2819C96.0121 44.1948 93.6693 47.4008 91.9656 46.1416C89.0751 44.0062 93.8221 36.5583 94.9751 34.4378C92.9043 36.0899 89.7895 40.3815 88.186 42.6329C87.6341 43.4069 86.5489 45.4917 86.089 45.7626C85.572 45.8538 84.9829 45.585 84.7616 45.1027C84.303 44.1035 84.8282 42.8225 85.1414 41.8411C84.1716 42.9157 83.2928 43.651 81.7874 43.8296C80.3658 45.4272 75.8514 49.5262 75.025 44.7385C74.5658 42.0793 76.7946 37.9028 78.3644 35.8756C79.6679 34.1917 81.2495 33.0238 83.4771 32.7847ZM77.9882 45.2396C79.0102 44.3783 79.3418 43.8713 80.0679 42.7213C79.8321 41.3093 79.5808 38.2541 81.9467 38.9348C82.369 38.0229 83.7828 34.6223 83.2494 33.77L83.0726 33.6916C80.3987 35.1522 75.5035 45.2357 77.9882 45.2396Z" fill="white"/>
<path d="M126.675 20.125C127.051 20.3261 126.913 20.189 127.13 20.5228C127.164 21.1575 125.47 24.6336 125.074 25.5336C123.558 28.9842 122.38 32.5206 120.194 35.6165C119.505 36.5919 118.987 38.249 118.444 39.3306C117.693 41.0413 116.862 42.9196 116.419 44.7404C119.013 43.9575 120.753 40.9063 122.35 38.8285C123.15 37.7876 124.251 36.2555 124.962 35.1551C125.007 35.3913 125.047 35.6284 125.08 35.8656C125.308 37.6407 122.808 40.2663 121.661 41.7388C120.266 43.5209 118.236 46.2775 115.865 46.7399C114.821 46.9433 114.347 46.0453 114.279 45.1354C113.348 45.6652 112.367 46.6486 111.26 46.6416C109.77 46.6327 109.474 45.1086 109.577 43.9149C109.848 40.8636 111.2 38.0367 112.523 35.3C113.869 32.5157 116.702 29.4793 119.669 28.4087C120.492 28.111 121.409 28.108 122.265 28.1884C122.963 26.6623 123.6 25.109 124.294 23.5824C124.933 22.1777 125.252 20.906 126.675 20.125ZM113.187 43.3562C116.166 40.8239 116.827 37.7568 118.358 34.139C117.912 34.0973 117.259 34.0507 116.919 33.7332C116.96 33.1676 120.905 31.5571 119.87 29.7304C119.604 29.6182 119.459 29.649 119.173 29.6619C116.028 31.4966 112.871 39.3385 111.892 42.8621C111.761 43.3334 111.64 43.7293 111.812 44.1967C112.164 44.3267 112.937 43.6102 113.187 43.3562Z" fill="white"/>
<path d="M163.213 21.6745C164.446 21.5855 171.213 21.5593 170.215 24.9234C170.174 25.0587 170.082 25.051 169.944 25.0978C168.319 23.2373 163.404 23.4693 161.054 23.5235C158.517 25.5104 155.868 29.9864 154.074 32.7131C155.263 32.604 157.665 32.4045 157.471 34.266C157.446 34.521 157.347 34.5836 157.164 34.6818L156.422 34.4456C155.512 34.1559 153.812 34.2928 152.866 34.4466C151.069 36.9481 149.356 41.3221 148.601 44.3167C148.393 45.1433 148.266 46.5345 148.108 47.4632L147.921 47.5247C144.933 46.1167 148.091 40.2117 148.821 38.2034C149.128 37.357 149.498 36.4024 149.839 35.5639L150.309 34.653C148.359 34.9378 147.368 35.2623 145.603 35.9757C146.459 33.9167 149.294 33.5556 151.264 33.113C152.969 30.0628 155.751 26.2157 158.302 23.8448C154.233 24.4295 146.488 26.3765 144.921 30.935C144.84 31.1711 144.851 32.0126 144.851 32.3113L143.992 31.824C143.383 24.5118 157.788 21.9634 163.213 21.6745Z" fill="white"/>
<path d="M161.242 33.6627C164.999 34.2105 159.865 39.2373 158.484 39.8852C157.039 40.564 153.469 43.0635 155.331 44.8595C156.99 45.3209 162.231 41.1256 163.642 40.1482C164.298 39.6937 165.44 38.2153 165.768 37.483C165.678 37.0682 165.607 36.6227 165.532 36.2029C166.326 36.5016 167.478 36.8598 167.333 37.865C166.997 40.1889 164.522 42.9047 163.35 44.929C165.738 43.378 168.657 40.434 170.748 38.4524C171.561 37.6824 171.837 35.6869 173.299 35.7048C173.946 35.7118 174.359 36.6733 174.175 37.3311C172.297 38.7283 171.535 40.4459 170.373 42.3957L169.822 43.5011C171.294 42.8422 172.603 42.1407 173.948 41.2655C174.239 41.075 174.945 40.9023 175.292 40.9896L175.29 41.0988C174.185 42.1853 172.65 43.1766 171.453 44.1927C170.727 44.8099 169.513 45.7049 168.525 45.3288C167.551 44.4725 168.622 42.5078 169.068 41.5523C168.301 42.224 161.594 49.0002 161.235 45.9698L161.146 45.2346C161.978 43.7988 162.689 42.3798 163.424 40.8944C163.016 41.1643 161.683 41.9869 161.452 42.3322C161.771 42.3431 162.104 42.1407 162.406 41.9958C160.899 43.4346 158.258 45.4191 156.193 45.8795C155.253 46.0889 154.785 45.8676 154.038 45.3546C152.735 42.6596 154.035 40.0847 155.635 37.862C156.915 36.0839 158.99 34.0289 161.242 33.6627ZM157.4 39.5121C158.079 38.889 159.548 37.6645 159.741 36.8221L159.624 36.6782C159.239 37.096 157.34 39.0359 157.305 39.407L157.4 39.5121Z" fill="white"/>
<path d="M71.9512 29.8822C73.7013 29.912 74.9334 31.4619 73.9058 32.9354C73.5831 33.0634 73.7377 33.0674 73.4265 32.9334C73.1186 32.5851 73.0912 32.1902 72.9882 31.7209C71.6636 32.2686 70.9538 32.8273 70.2851 34.1629C69.4337 35.8636 70.2419 37.4145 70.8702 39.0805C71.907 38.5011 72.8481 37.6715 73.8082 36.964C74.6749 36.324 75.5463 35.7257 76.4345 35.1174L75.9089 36.6316C74.9274 37.5098 72.5383 39.1242 71.3869 39.9369L71.618 41.1931C72.1147 44.3753 69.1455 47.1775 66.0831 46.6466C63.8081 46.2517 63.4769 44.2443 65.1956 42.8512C66.5388 41.7617 67.8248 41.0174 69.2794 40.1423C67.9526 37.2151 66.6279 33.7927 69.479 31.1751C70.2626 30.4557 70.913 30.1184 71.9512 29.8822ZM65.6305 45.1979C67.7563 45.1969 69.5841 43.5706 69.5253 41.3866L69.4388 41.2774C68.3802 42.0355 67.2238 42.8214 66.2309 43.6638C65.7404 44.0806 65.3308 44.5351 65.6305 45.1979Z" fill="white"/>
<path d="M51.2398 36.1435C55.0658 35.6652 51.5315 42.2767 50.8143 43.7532C53.8731 42.744 55.1382 41.4789 57.7069 39.5717C57.6825 39.6978 57.56 40.3179 57.5042 40.3894C56.18 42.0653 53.0977 44.3049 51.2652 45.1275C49.7758 45.3329 49.5233 44.5182 49.0017 43.3096C47.2893 44.028 44.2004 47.7967 42.7081 47.0078C41.2679 45.3547 44.9276 41.7845 45.9466 40.4072C47.3788 38.4713 48.7458 36.5642 51.2398 36.1435ZM44.6425 44.9469C46.0461 43.7532 49.854 40.8091 50.4718 39.5013L50.3986 39.4001C48.7774 39.9964 47.5341 40.9828 46.3484 42.23C45.8591 42.745 44.5756 44.167 44.5869 44.8903L44.6425 44.9469Z" fill="white"/>
<path d="M133.65 34.917C134.228 34.9884 134.508 35.3585 134.709 35.9053C135.051 36.836 133.571 37.4294 133.111 38.0665C132.074 39.5003 131.089 41.3102 130.267 42.8472C131.092 42.4364 131.946 42.0117 132.74 41.5463C133.992 40.8121 134.651 40.3268 136.122 40.185C134.476 41.4938 132.789 42.8829 131.111 44.0925C129.274 45.4172 128.035 44.4547 128.926 42.3729C129.152 41.846 129.369 41.2695 129.599 40.7406C127.979 42.3699 125.157 44.8437 123.188 45.9818C121.732 46.4819 121.749 45.437 121.711 44.4041C122.971 42.4602 123.773 40.0321 125.278 38.2292C125.698 37.7261 125.984 37.3937 126.288 36.8102C126.201 36.3459 126.121 35.8805 126.047 35.4141C128.079 36.3171 128.396 36.9323 127.201 39.1242C126.274 40.825 124.829 42.4066 123.926 44.1114L123.86 44.2374C126.207 42.6259 128.935 39.919 131.031 37.9603C132.139 36.9253 131.971 35.6483 133.65 34.917Z" fill="white"/>
<path d="M62.055 33.236C62.1301 33.234 62.2052 33.234 62.2803 33.235C62.6604 33.241 62.9914 33.2807 63.2602 33.5625C63.3802 34.0755 59.3938 42.8362 59.05 44.3614C60.1183 43.5398 63.8239 38.3829 64.0506 38.3035C64.4291 39.3266 63.7867 40.0549 63.1933 40.8338C62.4529 41.7497 57.4105 48.7571 56.6167 46.1236C55.8812 43.6826 59.8952 35.7961 61.4034 33.5665C61.4851 33.4464 61.9301 33.2807 62.055 33.236Z" fill="white"/>
<path d="M64.3606 29.2542C66.5303 29.3048 65.519 31.8688 63.8506 32.6795C61.738 32.6725 62.5487 29.9993 64.3606 29.2542Z" fill="white"/>
</svg>
